<svg width="75" height="41" viewBox="0 0 75 41" fill="none" version="1.1" xmlns="http://www.w3.org/2000/svg">
  <g filter="url(#filter0_d_513_287)">
    <path d="M35.503 33.29a2.67 2.67 0 0 0 2.659-2.68 2.67 2.67 0 0 0-2.66-2.68 2.67 2.67 0 0 0-2.659 2.68 2.67 2.67 0 0 0 2.66 2.68Z" stroke="#393333" stroke-width="2" stroke-miterlimit="10"/>
    <path d="m27.773 16.33 6.858 9.94a1.366 1.366 0 0 1-.34 1.893 1.342 1.342 0 0 1-1.991-.542l-5.108-10.955a.338.338 0 0 1 .161-.45.334.334 0 0 1 .42.114Z" fill="#393333"/>
    <path d="m47.873 14.724 4.973-8.687" stroke="#393333" stroke-width="2" stroke-miterlimit="10"/>
    <path d="m23.515 14.745-4.99-8.708" stroke="#393333" stroke-width="2" stroke-miterlimit="10"/>
    <path d="M35.713 11.148c12.488 0 22.608 10.2 22.608 22.788 0 .683-.038 1.356-.092 2.023h11.23c0-18.892-15.192-34.203-33.935-34.203-18.743 0-33.934 15.311-33.934 34.198h11.611a22.86 22.86 0 0 1-.091-2.024c-.005-12.582 10.114-22.782 22.603-22.782Z" stroke="#393333" stroke-width="2" stroke-miterlimit="10"/>
  </g>
  <defs>
    <filter id="filter0_d_513_287" x=".59" y=".756" width="73.868" height="40.204" filterUnits="userSpaceOnUse" color-interpolation-filters="sRGB">
      <feFlood flood-opacity="0" result="BackgroundImageFix"/>
      <feColorMatrix in="SourceAlpha" values="0 0 0 0 0 0 0 0 0 0 0 0 0 0 0 0 0 0 127 0" result="hardAlpha"/>
      <feOffset dx="4" dy="4"/>
      <feComposite in2="hardAlpha" operator="out"/>
      <feColorMatrix values="0 0 0 0 0.956863 0 0 0 0 0.890196 0 0 0 0 0.654902 0 0 0 1 0"/>
      <feBlend in2="BackgroundImageFix" result="effect1_dropShadow_513_287"/>
      <feBlend in="SourceGraphic" in2="effect1_dropShadow_513_287" result="shape"/>
    </filter>
  </defs>
</svg>
